<svg width="326" height="326" xmlns="http://www.w3.org/2000/svg"><g fill="#2491FF" fill-rule="nonzero"><path d="M325.4 207.8v-89.602a39.195 39.195 0 0 0-39.199-39.199h-140v33.602h140c1.484 0 2.91.59 3.96 1.637a5.603 5.603 0 0 1 1.642 3.96v89.603c0 1.484-.59 2.91-1.641 3.96a5.616 5.616 0 0 1-3.961 1.637h-140V247h140a39.2 39.2 0 0 0 39.199-39.199v-.001Z"/><path d="M90.2 305.97a61.607 61.607 0 0 0 44.801 19.43h16.801v-33.598h-16.801a28 28 0 0 1-28-28v-201.6a27.997 27.997 0 0 1 28-28h16.801V.604h-16.801A61.603 61.603 0 0 0 90.2 20.034 61.6 61.6 0 0 0 45.399.604H28.602v33.602h16.801l-.004-.004a27.996 27.996 0 0 1 28 28v201.6a27.997 27.997 0 0 1-28 28H28.602v33.602h16.801l-.004-.004A61.596 61.596 0 0 0 90.2 305.97Z"/><path d="M.6 73.4h33.602v179.2H.6z"/></g></svg>